<svg version="1.1" xmlns="http://www.w3.org/2000/svg" xmlns:xlink="http://www.w3.org/1999/xlink" width="17.93137" height="21.65424" viewBox="0,0,17.93137,21.65424"><g transform="translate(-232.08184,-165.8175)"><g data-paper-data="{&quot;isPaintingLayer&quot;:true}" fill="#ffffff" fill-rule="nonzero" stroke-linejoin="miter" stroke-miterlimit="10" stroke-dasharray="" stroke-dashoffset="0" style="mix-blend-mode: normal"><text transform="translate(241.05937,176.43822) scale(0.36718,0.24604)" font-size="40" xml:space="preserve" fill="#ffffff" fill-rule="nonzero" stroke="none" stroke-width="1" stroke-linecap="butt" stroke-linejoin="miter" stroke-miterlimit="10" stroke-dasharray="" stroke-dashoffset="0" font-family="Sans Serif" font-weight="normal" text-anchor="start" style="mix-blend-mode: normal"><tspan x="0" dy="0">+</tspan></text><g><path d="M234.58965,177.2672c-1.24697,0 -2.25781,-0.7243 -2.25781,-1.61775c0,-0.89346 1.01085,-1.61775 2.25781,-1.61775c1.24697,0 2.25781,0.7243 2.25781,1.61775c0,0.89346 -1.01085,1.61775 -2.25781,1.61775z" stroke="#ffffff" stroke-width="0.5" stroke-linecap="butt"/><g><path d="M239.70164,184.31741l1.67287,-0.59545l2.5148,0.04856l0.04067,3.2275c0,0 -0.48362,0.19212 -1.34877,0.20261c-0.50834,0.00617 -0.81392,0.17646 -2.23396,-0.56478c-0.98065,-0.51188 -2.07427,-1.21432 -3.3706,-2.21525c-1.61187,-1.3323 -1.67471,-1.54698 -2.07354,-1.88738c-0.65689,-0.62834 -1.81028,-2.60288 -1.93071,-3.57453c-0.75065,-1.3789 -0.62097,-3.33089 -0.62097,-3.33089h4.51053c0,0 0.38634,1.17716 0,1.96813c-0.33921,0.69448 -1.44178,1.41381 -1.44178,1.41381c0,0 -0.07028,1.30806 0.68731,1.89549c0.76671,0.97241 1.66727,1.80165 1.66727,1.80165z" stroke="#ffffff" stroke-width="0.5" stroke-linecap="round"/><path d="M241.10015,187.15432v-3.54277h2.92679v3.54277z" stroke="none" stroke-width="0" stroke-linecap="butt"/></g></g></g></g></svg>