<svg version="1.1" xmlns="http://www.w3.org/2000/svg" xmlns:xlink="http://www.w3.org/1999/xlink" width="18.02206" height="18.28105" viewBox="0,0,18.02206,18.28105"><g transform="translate(-231.14732,-169.06371)"><g data-paper-data="{&quot;isPaintingLayer&quot;:true}" fill="none" fill-rule="nonzero" stroke="#676767" stroke-width="1.5" stroke-linecap="round" stroke-linejoin="miter" stroke-miterlimit="10" stroke-dasharray="" stroke-dashoffset="0" style="mix-blend-mode: normal"><g><path d="M248.07399,186.38782c-9.17188,1.68861 -16.17666,-7.24852 -16.17666,-16.17666" data-paper-data="{&quot;index&quot;:null}"/><path d="M242.10387,184.94624l2.976,-2.976h3.33673c0,0 -0.00856,2.30262 0,4.05819c0.00336,0.6897 -0.97345,0.44912 -1.37285,0.5209c-0.51774,0.09303 -0.66923,0.24475 -2.05394,0.10829c-0.4677,-0.04609 -2.21708,-0.18181 -2.87715,-0.66178c-0.55204,-0.40141 -0.00879,-1.04959 -0.00879,-1.04959z" data-paper-data="{&quot;index&quot;:null}"/><path d="M232.9397,176.29262c-0.47998,-0.66007 -0.84526,-2.81117 -0.89134,-3.27887c-0.24172,-2.45294 -1.12673,-3.20496 0.45702,-3.19724c1.75557,0.00856 4.05819,0 4.05819,0v3.33673l-2.976,2.976c0,0 -0.24644,0.71541 -0.64786,0.16337z" data-paper-data="{&quot;index&quot;:null}"/></g></g></g></svg>