<svg version="1.1" xmlns="http://www.w3.org/2000/svg" xmlns:xlink="http://www.w3.org/1999/xlink" width="31.6734" height="26.82558" viewBox="0,0,31.6734,26.82558"><g transform="translate(-224.16211,-166.45935)"><g data-paper-data="{&quot;isPaintingLayer&quot;:true}" fill-rule="nonzero" stroke-linejoin="miter" stroke-miterlimit="10" stroke-dasharray="" stroke-dashoffset="0" style="mix-blend-mode: normal"><g fill="#007f67" stroke-linecap="butt"><path d="M226.98209,187.53198v-10.03186h24.47922v10.03186z" stroke="#ffffff" stroke-width="0"/><path d="M232.70654,172.54832l12.9395,-0.12675l0.30655,18.80823l-12.93949,0.12675z" stroke="#ffffff" stroke-width="0.5"/><path d="M242.45683,178.64501c0,3.46277 -3.43999,6.26991 -7.68344,6.26991c-4.24345,0 -7.68344,-2.80713 -7.68344,-6.26991c0,-3.46277 3.43999,-6.26992 7.68344,-6.26992c4.24345,0 7.68344,2.80714 7.68344,6.26992z" stroke="#ffffff" stroke-width="0.5"/><path d="M251.46131,178.7541c0,3.46277 -3.43999,6.26991 -7.68344,6.26991c-4.24345,0 -7.68344,-2.80714 -7.68344,-6.26991c0,-3.46277 3.43999,-6.26992 7.68344,-6.26992c4.24345,0 7.68344,2.80714 7.68344,6.26992z" stroke="none" stroke-width="0"/><path d="M243.26561,185.02401c0,3.46277 -3.62103,6.26991 -8.08782,6.26991c-4.46679,0 -8.08783,-2.80714 -8.08783,-6.26991c0,-3.46277 3.62104,-6.26991 8.08783,-6.26991c4.46679,0 8.08782,2.80714 8.08782,6.26991z" stroke="#ffffff" stroke-width="0.5"/><path d="M251.58459,185.02401c0,3.46277 -3.43999,6.26991 -7.68344,6.26991c-4.24345,0 -7.68344,-2.80714 -7.68344,-6.26991c0,-3.46277 3.43999,-6.26991 7.68344,-6.26991c4.24345,0 7.68344,2.80714 7.68344,6.26991z" stroke="none" stroke-width="0"/><path d="M245.17031,181.51336c0,2.48991 -2.42366,4.50836 -5.4134,4.50836c-2.98974,0 -5.4134,-2.01846 -5.4134,-4.50836c0,-2.48991 2.42366,-4.50837 5.4134,-4.50837c2.98974,0 5.4134,2.01846 5.4134,4.50837z" stroke="#000000" stroke-width="2"/><path d="M233.00832,172.67112l1.86965,-2.68512l8.90014,0.07274l1.65393,2.53966z" stroke="#000000" stroke-width="0"/></g><g fill="#007f67" stroke="#ffffff" stroke-width="0" stroke-linecap="butt"><path d="M225.7339,185.21112v-6.95504h27.20867v6.95504z"/><path d="M234.92507,170.83524l8.85936,-0.04103l0.16168,21.67496l-8.85936,0.04103z"/><path d="M241.13678,177.01188c0,3.47462 -3.47692,6.29136 -7.76591,6.29136c-4.289,0 -7.76591,-2.81674 -7.76591,-6.29136c0,-3.47462 3.47692,-6.29136 7.76591,-6.29136c4.289,0 7.76591,2.81674 7.76591,6.29136z"/><path d="M241.39434,186.21824c0,3.49177 -3.5092,6.32241 -7.83802,6.32241c-4.32882,0 -7.83802,-2.83064 -7.83802,-6.32241c0,-3.49177 3.5092,-6.32241 7.83802,-6.32241c4.32882,0 7.83802,2.83064 7.83802,6.32241z"/><path d="M252.83131,186.08436c0,3.44335 -3.44463,6.23474 -7.69379,6.23474c-4.24916,0 -7.69379,-2.79139 -7.69379,-6.23474c0,-3.44335 3.44463,-6.23474 7.69379,-6.23474c4.24916,0 7.69379,2.79139 7.69379,6.23474z"/><path d="M252.96172,176.98128c0,3.47463 -3.52534,6.29136 -7.87409,6.29136c-4.34873,0 -7.87409,-2.81674 -7.87409,-6.29136c0,-3.47463 3.52534,-6.29136 7.87409,-6.29136c4.34873,0 7.87409,2.81674 7.87409,6.29136z"/></g><path d="M245.2884,180.87501c0,2.48991 -2.42366,4.50836 -5.4134,4.50836c-2.98974,0 -5.4134,-2.01846 -5.4134,-4.50836c0,-2.48991 2.42366,-4.50837 5.4134,-4.50837c2.98974,0 5.4134,2.01846 5.4134,4.50837z" fill="#007f67" stroke="#ffffff" stroke-width="2" stroke-linecap="butt"/><path d="M232.4125,171.24251l2.08609,-2.68512l9.93044,0.07274l1.84538,2.53966z" fill="#007f67" stroke="#000000" stroke-width="0" stroke-linecap="butt"/><path d="M227.25889,189.05488v-13.58999" fill="none" stroke="#007f67" stroke-width="2.5" stroke-linecap="round"/><path d="M252.89985,175.83892v13.58999" fill="none" stroke="#007f67" stroke-width="2.5" stroke-linecap="round"/><path d="M252.65331,189.92764h-25.39442" fill="none" stroke="#007f67" stroke-width="2.5" stroke-linecap="round"/><g fill="#007f67" stroke="#ffffff" stroke-width="2" stroke-linecap="round"><path d="M244.24501,167.72065h-9.14692"/><path d="M234.64612,168.00321l-2.64636,3.79862"/><path d="M247.14023,171.09893l-2.85652,-3.63958" data-paper-data="{&quot;index&quot;:null}"/><g><path d="M225.2485,176.10134v9.33616"/><path d="M225.16423,178.34525c0,0 -0.09646,-4.48156 1.01191,-5.61285c1.04371,-1.06529 5.45594,-0.98881 5.45594,-0.98881"/><g><path d="M229.58318,192.19675h9.14692"/><path d="M231.78161,192.28277c0,0 -4.39071,0.09844 -5.49908,-1.03285c-1.04371,-1.06529 -0.96877,-5.56881 -0.96877,-5.56881"/></g></g><g data-paper-data="{&quot;index&quot;:null}"><path d="M254.74051,185.35438v-9.44949"/><path d="M247.54495,171.49424c0,0 4.97346,-0.07741 6.14993,1.00082c1.24935,1.14502 1.14063,5.68098 1.14063,5.68098"/><g><path d="M249.85446,192.19568h-10.3104"/><path d="M254.66695,185.60095c0,0 0.08447,4.55818 -1.09199,5.6364c-1.24935,1.14502 -6.19856,1.04539 -6.19856,1.04539"/></g></g></g></g></g></svg>