<svg version="1.1" xmlns="http://www.w3.org/2000/svg" xmlns:xlink="http://www.w3.org/1999/xlink" width="31.6734" height="26.82558" viewBox="0,0,31.6734,26.82558"><g transform="translate(-224.1621,-166.58721)"><g data-paper-data="{&quot;isPaintingLayer&quot;:true}" fill="none" fill-rule="nonzero" stroke="#ffffff" stroke-width="2" stroke-linejoin="miter" stroke-miterlimit="10" stroke-dasharray="" stroke-dashoffset="0" style="mix-blend-mode: normal"><g><path d="M245.1634,180.87787c0,2.48991 -2.42366,4.50836 -5.4134,4.50836c-2.98974,0 -5.4134,-2.01846 -5.4134,-4.50836c0,-2.48991 2.42366,-4.50837 5.4134,-4.50837c2.98974,0 5.4134,2.01846 5.4134,4.50837z" stroke-linecap="butt"/><g stroke-linecap="round"><path d="M244.24501,167.84851h-9.14692"/><path d="M234.64612,168.13107l-2.64636,3.79862"/><path d="M247.14023,171.22679l-2.85652,-3.63958" data-paper-data="{&quot;index&quot;:null}"/><g><path d="M225.2485,176.2292v9.33616"/><path d="M225.16423,178.47311c0,0 -0.09646,-4.48156 1.01191,-5.61285c1.04371,-1.06529 5.45594,-0.98881 5.45594,-0.98881"/><g><path d="M229.58318,192.32461h9.14692"/><path d="M231.78161,192.41063c0,0 -4.39071,0.09844 -5.49908,-1.03285c-1.04371,-1.06529 -0.96877,-5.56881 -0.96877,-5.56881"/></g></g><g data-paper-data="{&quot;index&quot;:null}"><path d="M254.74051,185.48224v-9.44949"/><path d="M247.54495,171.6221c0,0 4.97346,-0.07741 6.14993,1.00082c1.24935,1.14502 1.14063,5.68098 1.14063,5.68098"/><g><path d="M249.85446,192.32354h-10.3104"/><path d="M254.66695,185.72881c0,0 0.08447,4.55818 -1.09199,5.6364c-1.24935,1.14502 -6.19856,1.04539 -6.19856,1.04539"/></g></g></g></g></g></g></svg>