<svg version="1.1" xmlns="http://www.w3.org/2000/svg" xmlns:xlink="http://www.w3.org/1999/xlink" width="35.4461" height="21.24947" viewBox="0,0,35.4461,21.24947"><g transform="translate(-221.93098,-169.37597)"><g data-paper-data="{&quot;isPaintingLayer&quot;:true}" fill="none" fill-rule="nonzero" stroke="#656565" stroke-width="1.5" stroke-linecap="butt" stroke-linejoin="miter" stroke-miterlimit="10" stroke-dasharray="" stroke-dashoffset="0" style="mix-blend-mode: normal"><g><g><path d="M227.68169,176.39544c0,-1.99359 1.61613,-3.60972 3.60973,-3.60972c1.99359,0 3.60972,1.61613 3.60972,3.60972c0,1.99359 -1.61613,3.60973 -3.60972,3.60973c-1.99359,0 -3.60973,-1.61613 -3.60973,-3.60973z"/><path d="M223.37292,189.57213c0,0 -0.68976,-1.28385 -0.69194,-2.63632c-0.00162,-1.00665 -0.00014,-1.35391 0.69194,-2.63289c1.13456,-1.96226 4.40886,-2.89972 7.70768,-2.91005c-1.61439,1.22916 -2.65645,3.17142 -2.65645,5.35707c0,1.01696 0.2256,1.98122 0.62948,2.84548z"/></g><g><path d="M235.80869,174.35629c0,-2.33634 1.89398,-4.23032 4.23032,-4.23032c2.33634,0 4.23032,1.89398 4.23032,4.23032c0,2.33634 -1.89398,4.23032 -4.23032,4.23032c-2.33634,0 -4.23032,-1.89398 -4.23032,-4.23032z"/><path d="M230.75913,189.79836c0,0 -0.80834,-1.50458 -0.8109,-3.08957c-0.00191,-1.17971 -0.00016,-1.58668 0.8109,-3.08554c2.72305,-4.70962 15.96388,-4.38197 18.42883,0c0.67075,1.1924 0.86794,2.25491 0.9303,3.14659c0.1326,1.89604 -0.90679,3.10419 -0.90679,3.10419z"/></g><g data-paper-data="{&quot;index&quot;:null}"><path d="M248.70858,180.0258c-1.99359,0 -3.60972,-1.61614 -3.60972,-3.60973c0,-1.99359 1.61613,-3.60972 3.60972,-3.60972c1.99359,0 3.60973,1.61613 3.60973,3.60972c0,1.99359 -1.61613,3.60973 -3.60973,3.60973z"/><path d="M250.94637,189.61606c0.40388,-0.86426 0.62948,-1.82853 0.62948,-2.84548c0,-2.18565 -1.04206,-4.12791 -2.65645,-5.35707c3.29882,0.01032 6.57312,0.94779 7.70768,2.91005c0.69209,1.27898 0.69357,1.62624 0.69194,2.63288c-0.00218,1.35247 -0.69194,2.63632 -0.69194,2.63632z"/></g></g></g></g></svg>