<svg version="1.1" xmlns="http://www.w3.org/2000/svg" xmlns:xlink="http://www.w3.org/1999/xlink" width="30.33169" height="26.86647" viewBox="0,0,30.33169,26.86647"><g transform="translate(-224.49062,-166.8884)"><g data-paper-data="{&quot;isPaintingLayer&quot;:true}" fill-rule="nonzero" stroke="#008e72" stroke-width="3.5" stroke-linejoin="miter" stroke-miterlimit="10" stroke-dasharray="" stroke-dashoffset="0" style="mix-blend-mode: normal"><path d="M246.28957,171.57343l3.20416,3.04312l-19.6837,17.36345l-3.35369,-0.12525l0.40773,-3.37045z" fill="#008e72" stroke-linecap="round"/><g><path d="M252.87267,168.6384c0.89464,0.82452 0.89464,2.16134 0,2.98587c-0.0025,0.00231 -0.00502,0.00461 -0.00754,0.00691c-0.17559,-0.17336 -0.50806,-0.48394 -0.84403,-0.76745c-0.04844,-0.05796 -0.10991,-0.11544 -0.17705,-0.17105c-0.06387,-0.10505 -0.16942,-0.19905 -0.29445,-0.27255c-0.17354,-0.20444 -0.41584,-0.4172 -0.54855,-0.5221c-0.01724,-0.01363 -0.03456,-0.02597 -0.0519,-0.03707c-0.03756,-0.03405 -0.07825,-0.06163 -0.12397,-0.07928c-0.16815,-0.1802 -0.3652,-0.37778 -0.57726,-0.54706c-0.0164,-0.03832 -0.04791,-0.06896 -0.08932,-0.09292c-0.00012,-0.02364 -0.00998,-0.04723 -0.02954,-0.06527c-0.02319,-0.02137 -0.05485,-0.03016 -0.08502,-0.02637c-0.00946,-0.00514 -0.01964,-0.00873 -0.03009,-0.01077c-0.03935,-0.06942 -0.09067,-0.13458 -0.15395,-0.19291c-0.02396,-0.02208 -0.04898,-0.04259 -0.07492,-0.06151c-0.05092,-0.06149 -0.0999,-0.11163 -0.14674,-0.15151c0.89507,-0.81953 2.3415,-0.81786 3.23434,0.005z" fill="#008e72" stroke-linecap="butt"/><g fill="none" stroke-linecap="round"><path d="M250.11731,169.06608l-0.44645,-0.41146"/><path d="M252.86062,171.5944l-2.73154,-2.51747"/></g></g></g></g></svg>