<svg version="1.1" xmlns="http://www.w3.org/2000/svg" xmlns:xlink="http://www.w3.org/1999/xlink" width="22.10027" height="21.65451" viewBox="0,0,22.10027,21.65451"><g transform="translate(-228.09194,-168.58465)"><g data-paper-data="{&quot;isPaintingLayer&quot;:true}" fill-rule="nonzero" stroke="#656565" stroke-width="1.5" stroke-linejoin="miter" stroke-miterlimit="10" stroke-dasharray="" stroke-dashoffset="0" style="mix-blend-mode: normal"><g><path d="M234.07507,178.70956c0,-3.3094 2.68282,-5.99222 5.99222,-5.99222c3.3094,0 5.99221,2.68282 5.99221,5.99222c0,3.3094 -2.68281,5.99221 -5.99221,5.99221c-3.3094,0 -5.99222,-2.68281 -5.99222,-5.99221z" fill="none" stroke-linecap="butt"/><path d="M233.20282,185.0946c-1.55765,-1.67386 -2.51043,-3.91818 -2.51043,-6.38503c0,-0.93873 0.13797,-1.84522 0.39473,-2.70032" fill="none" stroke-linecap="butt"/><path d="M232.8097,172.77478c1.71924,-2.09994 4.33191,-3.44013 7.25759,-3.44013c2.90491,0 5.50123,1.32122 7.22083,3.39551" fill="none" stroke-linecap="butt"/><path d="M248.82353,175.35327c0.39966,1.04205 0.61868,2.17358 0.61868,3.35627c0,2.00214 -0.62763,3.85771 -1.69687,5.38066" fill="none" stroke-linecap="butt"/><path d="M245.29362,186.49366c-1.49324,1.00456 -3.29133,1.5908 -5.22634,1.5908c-1.81714,0 -3.51351,-0.51699 -4.95007,-1.41189" fill="none" stroke-linecap="butt"/><path d="M234.95302,186.63406l-4.39522,1.79064l2.70617,-3.28605" fill="none" stroke-linecap="round"/><path d="M234.62843,186.64225c0,-0.23821 0.19312,-0.43134 0.43134,-0.43134c0.23821,0 0.43134,0.19313 0.43134,0.43134c0,0.23821 -0.19313,0.43134 -0.43134,0.43134c-0.23821,0 -0.43134,-0.19313 -0.43134,-0.43134z" fill="#949494" stroke-linecap="butt"/></g></g></g></svg>