<svg version="1.1" xmlns="http://www.w3.org/2000/svg" xmlns:xlink="http://www.w3.org/1999/xlink" width="17.83917" height="20.18505" viewBox="0,0,17.83917,20.18505"><g transform="translate(-231.00903,-169.89171)"><g data-paper-data="{&quot;isPaintingLayer&quot;:true}" fill-rule="nonzero" stroke-linejoin="miter" stroke-miterlimit="10" stroke-dasharray="" stroke-dashoffset="0" style="mix-blend-mode: normal"><path d="" fill="#008069" stroke="none" stroke-width="0.5" stroke-linecap="butt"/><path d="" fill="#008069" stroke="none" stroke-width="0.5" stroke-linecap="butt"/><path d="" fill="#008069" stroke="none" stroke-width="0.5" stroke-linecap="butt"/><g fill="#ffffff"><path d="M234.63403,174.97817c-1.86397,0 -3.375,-1.08268 -3.375,-2.41823c0,-1.33555 1.51103,-2.41823 3.375,-2.41823c1.86397,0 3.375,1.08268 3.375,2.41823c0,1.33555 -1.51103,2.41823 -3.375,2.41823z" stroke="#ffffff" stroke-width="0.5" stroke-linecap="butt"/><g><path d="M242.27548,185.51689l2.50063,-0.89009l3.75915,0.07259l0.06079,4.8245c0,0 -0.72292,0.28718 -2.01615,0.30287c-0.75987,0.00922 -1.21665,0.26377 -3.33935,-0.84423c-1.46589,-0.76516 -3.10063,-1.81517 -5.03841,-3.31138c-2.40944,-1.99153 -2.50337,-2.31243 -3.09954,-2.82127c-0.98193,-0.93925 -2.70602,-3.89082 -2.88605,-5.34325c-1.12208,-2.0612 -0.92824,-4.97904 -0.92824,-4.97904h6.74238c0,0 0.57751,1.75963 0,2.94198c-0.50706,1.03811 -2.1552,2.11337 -2.1552,2.11337c0,0 -0.10505,1.95529 1.0274,2.83339c1.14608,1.45357 2.49225,2.69312 2.49225,2.69312z" stroke="#ffffff" stroke-width="0.5" stroke-linecap="round"/><path d="M244.36597,189.75753v-5.29577h4.375v5.29577z" stroke="none" stroke-width="0" stroke-linecap="butt"/></g></g></g></g></svg>